<svg width="46" height="41" viewBox="0 0 46 41" fill="none" xmlns="http://www.w3.org/2000/svg">
<path d="M16.9654 13.3751C17.0968 13.3751 17.2258 13.3751 17.3548 13.349C19.6099 13.045 21.017 10.1523 20.5081 6.88431C20.0232 3.80395 18.0069 1.50022 15.8927 1.50022C15.7614 1.50022 15.6324 1.50022 15.5034 1.52634C13.2482 1.83034 11.8412 4.72307 12.35 7.99105C12.8373 11.0619 14.8536 13.3751 16.9678 13.3751M29.4498 24.0626C26.822 19.3126 26.0074 18.1251 22.9997 18.1251C19.9921 18.1251 18.8526 19.9182 16.2248 24.6492C13.9745 28.6938 9.42597 29.0311 8.29124 32.4653C8.05952 33.0947 7.94485 34.0732 7.94963 34.75C7.94963 37.543 9.8297 39.5 12.2497 39.5C15.2573 39.5 19.4164 37.125 22.9997 37.125C26.5831 37.125 30.7422 39.5 33.7498 39.5C36.1698 39.5 38.0499 37.5454 38.0499 34.75C38.0499 34.0732 37.9328 33.0947 37.7011 32.4653C36.5663 29.0192 31.7001 28.1072 29.4498 24.0626ZM42.5601 11.1949C42.254 11.0634 41.9236 10.9971 41.5902 11.0002H41.5544C39.7985 11.0287 37.8277 12.7814 36.7933 15.4319C35.5535 18.6025 36.1244 21.8443 38.0785 22.6803C38.3907 22.8102 38.714 22.8751 39.0484 22.8751C40.8138 22.8751 42.811 21.1129 43.8525 18.4434C45.0852 15.2728 44.5023 12.0309 42.5601 11.1949ZM33.6447 7.99105C34.1559 4.72307 32.7489 1.83034 30.4914 1.52634C30.3633 1.50722 30.2339 1.49848 30.1044 1.50022C27.9902 1.50022 25.9763 3.80395 25.4938 6.88431C24.9825 10.1523 26.3896 13.045 28.6471 13.349C28.7761 13.3649 28.9051 13.3736 29.0341 13.3751C31.1483 13.3751 33.1669 11.0619 33.6447 7.99105ZM7.92574 22.6803C9.87509 21.8443 10.4436 18.5977 9.20619 15.4319C8.16463 12.7624 6.16989 11.0002 4.40688 11.0002C4.07084 11.0002 3.74674 11.0651 3.43459 11.1949C1.48524 12.0309 0.916685 15.2775 2.15414 18.4434C3.1957 21.1129 5.19044 22.8751 6.95345 22.8751C7.28949 22.8751 7.61359 22.8102 7.92574 22.6803Z" stroke="#D9D9D9" stroke-width="3" stroke-linecap="round" stroke-linejoin="round"/>
</svg>
